<svg xmlns="http://www.w3.org/2000/svg" xmlns:xlink="http://www.w3.org/1999/xlink" width="300" zoomAndPan="magnify" viewBox="0 0 224.87999 149.999998" height="200" preserveAspectRatio="xMidYMid meet" version="1.0"><defs><g/><clipPath id="26bea25ba5"><path d="M 111.632812 75 L 130.371094 75 L 130.371094 93.738281 L 111.632812 93.738281 Z M 111.632812 75 " clip-rule="nonzero"/></clipPath><clipPath id="d1f87ec6ec"><path d="M 115.378906 75 L 126.472656 75 C 127.464844 75 128.417969 75.394531 129.121094 76.097656 C 129.824219 76.800781 130.21875 77.753906 130.21875 78.746094 L 130.21875 89.839844 C 130.21875 90.835938 129.824219 91.789062 129.121094 92.492188 C 128.417969 93.191406 127.464844 93.585938 126.472656 93.585938 L 115.378906 93.585938 C 114.386719 93.585938 113.433594 93.191406 112.730469 92.492188 C 112.027344 91.789062 111.632812 90.835938 111.632812 89.839844 L 111.632812 78.746094 C 111.632812 77.753906 112.027344 76.800781 112.730469 76.097656 C 113.433594 75.394531 114.386719 75 115.378906 75 Z M 115.378906 75 " clip-rule="nonzero"/></clipPath><clipPath id="3e33fbdb26"><path d="M 135.8125 96.230469 L 154.550781 96.230469 L 154.550781 114.972656 L 135.8125 114.972656 Z M 135.8125 96.230469 " clip-rule="nonzero"/></clipPath><clipPath id="544a1cd18c"><path d="M 139.558594 96.230469 L 150.652344 96.230469 C 151.644531 96.230469 152.597656 96.625 153.300781 97.328125 C 154.003906 98.03125 154.398438 98.984375 154.398438 99.980469 L 154.398438 111.074219 C 154.398438 112.066406 154.003906 113.019531 153.300781 113.722656 C 152.597656 114.425781 151.644531 114.820312 150.652344 114.820312 L 139.558594 114.820312 C 138.5625 114.820312 137.613281 114.425781 136.910156 113.722656 C 136.207031 113.019531 135.8125 112.066406 135.8125 111.074219 L 135.8125 99.980469 C 135.8125 98.984375 136.207031 98.03125 136.910156 97.328125 C 137.613281 96.625 138.5625 96.230469 139.558594 96.230469 Z M 139.558594 96.230469 " clip-rule="nonzero"/></clipPath><clipPath id="4feb5d5d6c"><path d="M 112.441406 96.230469 L 131.179688 96.230469 L 131.179688 114.972656 L 112.441406 114.972656 Z M 112.441406 96.230469 " clip-rule="nonzero"/></clipPath><clipPath id="37e9b90b73"><path d="M 116.1875 96.230469 L 127.28125 96.230469 C 128.273438 96.230469 129.226562 96.625 129.929688 97.328125 C 130.632812 98.03125 131.027344 98.984375 131.027344 99.980469 L 131.027344 111.074219 C 131.027344 112.066406 130.632812 113.019531 129.929688 113.722656 C 129.226562 114.425781 128.273438 114.820312 127.28125 114.820312 L 116.1875 114.820312 C 115.191406 114.820312 114.238281 114.425781 113.539062 113.722656 C 112.835938 113.019531 112.441406 112.066406 112.441406 111.074219 L 112.441406 99.980469 C 112.441406 98.984375 112.835938 98.03125 113.539062 97.328125 C 114.238281 96.625 115.191406 96.230469 116.1875 96.230469 Z M 116.1875 96.230469 " clip-rule="nonzero"/></clipPath><clipPath id="5735a12c66"><path d="M 90.230469 96.230469 L 108.96875 96.230469 L 108.96875 114.972656 L 90.230469 114.972656 Z M 90.230469 96.230469 " clip-rule="nonzero"/></clipPath><clipPath id="36d46b653f"><path d="M 93.976562 96.230469 L 105.070312 96.230469 C 106.0625 96.230469 107.015625 96.625 107.71875 97.328125 C 108.421875 98.03125 108.816406 98.984375 108.816406 99.980469 L 108.816406 111.074219 C 108.816406 112.066406 108.421875 113.019531 107.71875 113.722656 C 107.015625 114.425781 106.0625 114.820312 105.070312 114.820312 L 93.976562 114.820312 C 92.984375 114.820312 92.03125 114.425781 91.328125 113.722656 C 90.625 113.019531 90.230469 112.066406 90.230469 111.074219 L 90.230469 99.980469 C 90.230469 98.984375 90.625 98.03125 91.328125 97.328125 C 92.03125 96.625 92.984375 96.230469 93.976562 96.230469 Z M 93.976562 96.230469 " clip-rule="nonzero"/></clipPath><clipPath id="7c960a5052"><path d="M 29.535156 75.710938 L 48.273438 75.710938 L 48.273438 94.453125 L 29.535156 94.453125 Z M 29.535156 75.710938 " clip-rule="nonzero"/></clipPath><clipPath id="026c02a79e"><path d="M 33.28125 75.710938 L 44.375 75.710938 C 45.371094 75.710938 46.324219 76.105469 47.027344 76.808594 C 47.726562 77.511719 48.121094 78.464844 48.121094 79.460938 L 48.121094 90.554688 C 48.121094 91.546875 47.726562 92.5 47.027344 93.203125 C 46.324219 93.90625 45.371094 94.300781 44.375 94.300781 L 33.28125 94.300781 C 32.289062 94.300781 31.335938 93.90625 30.632812 93.203125 C 29.929688 92.5 29.535156 91.546875 29.535156 90.554688 L 29.535156 79.460938 C 29.535156 78.464844 29.929688 77.511719 30.632812 76.808594 C 31.335938 76.105469 32.289062 75.710938 33.28125 75.710938 Z M 33.28125 75.710938 " clip-rule="nonzero"/></clipPath><clipPath id="bf0348e4f4"><path d="M 0.0195312 1 L 8 1 L 8 9 L 0.0195312 9 Z M 0.0195312 1 " clip-rule="nonzero"/></clipPath><clipPath id="6570d48173"><rect x="0" width="9" y="0" height="10"/></clipPath><clipPath id="4c5612acf1"><path d="M 14.488281 20.566406 L 33.230469 20.566406 L 33.230469 39.308594 L 14.488281 39.308594 Z M 14.488281 20.566406 " clip-rule="nonzero"/></clipPath><clipPath id="6c44a3f2fe"><path d="M 18.234375 20.566406 L 29.332031 20.566406 C 30.324219 20.566406 31.277344 20.960938 31.980469 21.664062 C 32.683594 22.367188 33.078125 23.320312 33.078125 24.316406 L 33.078125 35.410156 C 33.078125 36.402344 32.683594 37.355469 31.980469 38.058594 C 31.277344 38.761719 30.324219 39.15625 29.332031 39.15625 L 18.234375 39.15625 C 17.242188 39.15625 16.289062 38.761719 15.585938 38.058594 C 14.882812 37.355469 14.488281 36.402344 14.488281 35.410156 L 14.488281 24.316406 C 14.488281 23.320312 14.882812 22.367188 15.585938 21.664062 C 16.289062 20.960938 17.242188 20.566406 18.234375 20.566406 Z M 18.234375 20.566406 " clip-rule="nonzero"/></clipPath><clipPath id="63cde0f043"><path d="M 0.550781 1 L 5 1 L 5 6 L 0.550781 6 Z M 0.550781 1 " clip-rule="nonzero"/></clipPath><clipPath id="4e0758236c"><rect x="0" width="16" y="0" height="7"/></clipPath><clipPath id="eea66cedaa"><path d="M 1 1 L 5 1 L 5 4.886719 L 1 4.886719 Z M 1 1 " clip-rule="nonzero"/></clipPath><clipPath id="4c54557cb2"><path d="M 4 1 L 8 1 L 8 4.886719 L 4 4.886719 Z M 4 1 " clip-rule="nonzero"/></clipPath><clipPath id="871476e161"><path d="M 8 1 L 12 1 L 12 4.886719 L 8 4.886719 Z M 8 1 " clip-rule="nonzero"/></clipPath><clipPath id="a9b5edae9d"><path d="M 11 1 L 15 1 L 15 4.886719 L 11 4.886719 Z M 11 1 " clip-rule="nonzero"/></clipPath><clipPath id="6048a7c9d7"><path d="M 15 1 L 19 1 L 19 4.886719 L 15 4.886719 Z M 15 1 " clip-rule="nonzero"/></clipPath><clipPath id="d29516f990"><rect x="0" width="20" y="0" height="5"/></clipPath><clipPath id="8723a20c68"><path d="M 0.105469 1 L 4 1 L 4 5 L 0.105469 5 Z M 0.105469 1 " clip-rule="nonzero"/></clipPath><clipPath id="946fbd5db7"><rect x="0" width="17" y="0" height="6"/></clipPath><clipPath id="3484c55083"><path d="M 58.621094 34.164062 L 77.363281 34.164062 L 77.363281 52.90625 L 58.621094 52.90625 Z M 58.621094 34.164062 " clip-rule="nonzero"/></clipPath><clipPath id="bc70f33afa"><path d="M 62.371094 34.164062 L 73.464844 34.164062 C 74.457031 34.164062 75.410156 34.558594 76.113281 35.261719 C 76.816406 35.964844 77.210938 36.917969 77.210938 37.910156 L 77.210938 49.003906 C 77.210938 50 76.816406 50.953125 76.113281 51.65625 C 75.410156 52.359375 74.457031 52.753906 73.464844 52.753906 L 62.371094 52.753906 C 61.375 52.753906 60.421875 52.359375 59.71875 51.65625 C 59.019531 50.953125 58.621094 50 58.621094 49.003906 L 58.621094 37.910156 C 58.621094 36.917969 59.019531 35.964844 59.71875 35.261719 C 60.421875 34.558594 61.375 34.164062 62.371094 34.164062 Z M 62.371094 34.164062 " clip-rule="nonzero"/></clipPath><clipPath id="58ff71aa14"><path d="M 1 0.179688 L 8 0.179688 L 8 8 L 1 8 Z M 1 0.179688 " clip-rule="nonzero"/></clipPath><clipPath id="63fde32b85"><rect x="0" width="10" y="0" height="10"/></clipPath><clipPath id="57c566f44f"><path d="M 0.171875 0.199219 L 4 0.199219 L 4 4.757812 L 0.171875 4.757812 Z M 0.171875 0.199219 " clip-rule="nonzero"/></clipPath><clipPath id="6102cf8de0"><path d="M 4 0.199219 L 8 0.199219 L 8 4.757812 L 4 4.757812 Z M 4 0.199219 " clip-rule="nonzero"/></clipPath><clipPath id="7d9523e999"><path d="M 8 0.199219 L 12 0.199219 L 12 4.757812 L 8 4.757812 Z M 8 0.199219 " clip-rule="nonzero"/></clipPath><clipPath id="ee7e1fe001"><path d="M 12 0.199219 L 16 0.199219 L 16 4.757812 L 12 4.757812 Z M 12 0.199219 " clip-rule="nonzero"/></clipPath><clipPath id="b671539f76"><path d="M 16 0.199219 L 20 0.199219 L 20 4.757812 L 16 4.757812 Z M 16 0.199219 " clip-rule="nonzero"/></clipPath><clipPath id="8a00ba9527"><rect x="0" width="21" y="0" height="5"/></clipPath><clipPath id="47c03d1e11"><path d="M 0.632812 1 L 5 1 L 5 5 L 0.632812 5 Z M 0.632812 1 " clip-rule="nonzero"/></clipPath><clipPath id="b8566ae014"><rect x="0" width="21" y="0" height="11"/></clipPath><clipPath id="f6d8d06065"><path d="M 17 6 L 20.796875 6 L 20.796875 10 L 17 10 Z M 17 6 " clip-rule="nonzero"/></clipPath><clipPath id="95ebc5b18e"><rect x="0" width="21" y="0" height="11"/></clipPath><clipPath id="9166e43c7b"><path d="M 1 0.332031 L 5 0.332031 L 5 5 L 1 5 Z M 1 0.332031 " clip-rule="nonzero"/></clipPath><clipPath id="dacadf41b5"><path d="M 5 0.332031 L 9 0.332031 L 9 5 L 5 5 Z M 5 0.332031 " clip-rule="nonzero"/></clipPath><clipPath id="5cf0bb003c"><path d="M 8 0.332031 L 13 0.332031 L 13 5 L 8 5 Z M 8 0.332031 " clip-rule="nonzero"/></clipPath><clipPath id="fc33f90c19"><path d="M 12 0.332031 L 17 0.332031 L 17 5 L 12 5 Z M 12 0.332031 " clip-rule="nonzero"/></clipPath><clipPath id="4dcf37741c"><rect x="0" width="21" y="0" height="11"/></clipPath><clipPath id="193ba5dfbb"><path d="M 0.0234375 0.136719 L 4 0.136719 L 4 4 L 0.0234375 4 Z M 0.0234375 0.136719 " clip-rule="nonzero"/></clipPath><clipPath id="a5b54994f5"><path d="M 4 0.136719 L 8 0.136719 L 8 4 L 4 4 Z M 4 0.136719 " clip-rule="nonzero"/></clipPath><clipPath id="13f691065e"><path d="M 8 0.136719 L 12 0.136719 L 12 4 L 8 4 Z M 8 0.136719 " clip-rule="nonzero"/></clipPath><clipPath id="fe040315f6"><path d="M 11 0.136719 L 16 0.136719 L 16 4 L 11 4 Z M 11 0.136719 " clip-rule="nonzero"/></clipPath><clipPath id="a9142c3b67"><path d="M 6 5 L 10 5 L 10 9.96875 L 6 9.96875 Z M 6 5 " clip-rule="nonzero"/></clipPath><clipPath id="c5edd025c7"><path d="M 10 5 L 14 5 L 14 9.96875 L 10 9.96875 Z M 10 5 " clip-rule="nonzero"/></clipPath><clipPath id="1310cbdab8"><rect x="0" width="20" y="0" height="10"/></clipPath><clipPath id="d2b203f1e4"><path d="M 0.0546875 1 L 6 1 L 6 7 L 0.0546875 7 Z M 0.0546875 1 " clip-rule="nonzero"/></clipPath><clipPath id="22e67c033e"><rect x="0" width="48" y="0" height="8"/></clipPath><clipPath id="2d7c36c727"><path d="M 8.574219 17.285156 L 162.988281 17.285156 L 162.988281 124.480469 L 8.574219 124.480469 Z M 8.574219 17.285156 " clip-rule="nonzero"/></clipPath><clipPath id="9192896fd7"><path d="M 13.074219 17.285156 L 158.414062 17.285156 C 159.605469 17.285156 160.75 17.761719 161.59375 18.601562 C 162.4375 19.445312 162.910156 20.589844 162.910156 21.78125 L 162.910156 119.769531 C 162.910156 120.964844 162.4375 122.105469 161.59375 122.949219 C 160.75 123.792969 159.605469 124.269531 158.414062 124.269531 L 13.074219 124.269531 C 11.878906 124.269531 10.734375 123.792969 9.890625 122.949219 C 9.050781 122.105469 8.574219 120.964844 8.574219 119.769531 L 8.574219 21.78125 C 8.574219 20.589844 9.050781 19.445312 9.890625 18.601562 C 10.734375 17.761719 11.878906 17.285156 13.074219 17.285156 Z M 13.074219 17.285156 " clip-rule="nonzero"/></clipPath></defs><g clip-path="url(#26bea25ba5)"><g clip-path="url(#d1f87ec6ec)"><path stroke-linecap="butt" transform="matrix(0.7496, 0, 0, 0.7496, 111.631761, 74.999998)" fill="none" stroke-linejoin="miter" d="M 4.99886 0.00000316756 L 19.798421 0.00000316756 C 21.122044 0.00000316756 22.393556 0.526326 23.331556 1.464326 C 24.269556 2.402326 24.795879 3.673838 24.795879 4.997461 L 24.795879 19.797022 C 24.795879 21.125855 24.269556 22.397367 23.331556 23.335367 C 22.393556 24.268157 21.122044 24.794479 19.798421 24.794479 L 4.99886 24.794479 C 3.675238 24.794479 2.403726 24.268157 1.465726 23.335367 C 0.527725 22.397367 0.00140292 21.125855 0.00140292 19.797022 L 0.00140292 4.997461 C 0.00140292 3.673838 0.527725 2.402326 1.465726 1.464326 C 2.403726 0.526326 3.675238 0.00000316756 4.99886 0.00000316756 Z M 4.99886 0.00000316756 " stroke="#ffffff" stroke-width="1" stroke-opacity="1" stroke-miterlimit="4"/></g></g><g clip-path="url(#3e33fbdb26)"><g clip-path="url(#544a1cd18c)"><path stroke-linecap="butt" transform="matrix(0.7496, 0, 0, 0.7496, 135.811286, 96.231683)" fill="none" stroke-linejoin="miter" d="M 4.999077 -0.00161985 L 19.798638 -0.00161985 C 21.122261 -0.00161985 22.393773 0.524703 23.331773 1.462703 C 24.269773 2.400703 24.796096 3.672215 24.796096 5.001049 L 24.796096 19.80061 C 24.796096 21.124232 24.269773 22.395744 23.331773 23.333744 C 22.393773 24.271745 21.122261 24.798067 19.798638 24.798067 L 4.999077 24.798067 C 3.670243 24.798067 2.403943 24.271745 1.465943 23.333744 C 0.527942 22.395744 0.00161985 21.124232 0.00161985 19.80061 L 0.00161985 5.001049 C 0.00161985 3.672215 0.527942 2.400703 1.465943 1.462703 C 2.403943 0.524703 3.670243 -0.00161985 4.999077 -0.00161985 Z M 4.999077 -0.00161985 " stroke="#ffffff" stroke-width="1" stroke-opacity="1" stroke-miterlimit="4"/></g></g><g clip-path="url(#4feb5d5d6c)"><g clip-path="url(#37e9b90b73)"><path stroke-linecap="butt" transform="matrix(0.7496, 0, 0, 0.7496, 112.43999, 96.231683)" fill="none" stroke-linejoin="miter" d="M 4.999346 -0.00161985 L 19.798907 -0.00161985 C 21.12253 -0.00161985 22.394042 0.524703 23.332042 1.462703 C 24.270042 2.400703 24.796365 3.672215 24.796365 5.001049 L 24.796365 19.80061 C 24.796365 21.124232 24.270042 22.395744 23.332042 23.333744 C 22.394042 24.271745 21.12253 24.798067 19.798907 24.798067 L 4.999346 24.798067 C 3.670513 24.798067 2.399001 24.271745 1.466212 23.333744 C 0.528211 22.395744 0.00188892 21.124232 0.00188892 19.80061 L 0.00188892 5.001049 C 0.00188892 3.672215 0.528211 2.400703 1.466212 1.462703 C 2.399001 0.524703 3.670513 -0.00161985 4.999346 -0.00161985 Z M 4.999346 -0.00161985 " stroke="#ffffff" stroke-width="1" stroke-opacity="1" stroke-miterlimit="4"/></g></g><g clip-path="url(#5735a12c66)"><g clip-path="url(#36d46b653f)"><path stroke-linecap="butt" transform="matrix(0.7496, 0, 0, 0.7496, 90.229373, 96.231683)" fill="none" stroke-linejoin="miter" d="M 4.998919 -0.00161985 L 19.79848 -0.00161985 C 21.122103 -0.00161985 22.393615 0.524703 23.331615 1.462703 C 24.269615 2.400703 24.795938 3.672215 24.795938 5.001049 L 24.795938 19.80061 C 24.795938 21.124232 24.269615 22.395744 23.331615 23.333744 C 22.393615 24.271745 21.122103 24.798067 19.79848 24.798067 L 4.998919 24.798067 C 3.675296 24.798067 2.403785 24.271745 1.465785 23.333744 C 0.527784 22.395744 0.00146176 21.124232 0.00146176 19.80061 L 0.00146176 5.001049 C 0.00146176 3.672215 0.527784 2.400703 1.465785 1.462703 C 2.403785 0.524703 3.675296 -0.00161985 4.998919 -0.00161985 Z M 4.998919 -0.00161985 " stroke="#ffffff" stroke-width="1" stroke-opacity="1" stroke-miterlimit="4"/></g></g><g clip-path="url(#7c960a5052)"><g clip-path="url(#026c02a79e)"><path stroke-linecap="butt" transform="matrix(0.7496, 0, 0, 0.7496, 29.535167, 75.7126)" fill="none" stroke-linejoin="miter" d="M 4.997443 -0.00221746 L 19.797004 -0.00221746 C 21.125838 -0.00221746 22.397349 0.524105 23.33535 1.462105 C 24.268139 2.400106 24.794461 3.671617 24.794461 5.000451 L 24.794461 19.800012 C 24.794461 21.123635 24.268139 22.395146 23.33535 23.333147 C 22.397349 24.271147 21.125838 24.79747 19.797004 24.79747 L 4.997443 24.79747 C 3.67382 24.79747 2.402309 24.271147 1.464308 23.333147 C 0.526308 22.395146 -0.0000146076 21.123635 -0.0000146076 19.800012 L -0.0000146076 5.000451 C -0.0000146076 3.671617 0.526308 2.400106 1.464308 1.462105 C 2.402309 0.524105 3.67382 -0.00221746 4.997443 -0.00221746 Z M 4.997443 -0.00221746 " stroke="#ffffff" stroke-width="1" stroke-opacity="1" stroke-miterlimit="4"/></g></g><path stroke-linecap="butt" transform="matrix(0, 0.7496, -0.7496, 0, 120.925272, 80.640554)" fill="none" stroke-linejoin="miter" d="M 2.751563 0.499588 L 11.662566 0.499588 " stroke="#ffffff" stroke-width="1" stroke-opacity="1" stroke-miterlimit="4"/><path stroke-linecap="round" transform="matrix(0, 0.7496, -0.7496, 0, 120.925272, 80.640554)" fill-opacity="1" fill="#ffffff" fill-rule="nonzero" stroke-linejoin="round" d="M 2.501429 -1.001213 L 0.500362 0.499588 L 2.501429 2.000388 Z M 2.501429 -1.001213 " stroke="#ffffff" stroke-width="1" stroke-opacity="1" stroke-miterlimit="4"/><path stroke-linecap="butt" transform="matrix(0.0000000013083, -0.7496, 0.7496, 0.0000000013083, 120.925272, 109.721277)" fill="none" stroke-linejoin="miter" d="M 2.749628 0.500946 L 11.665842 0.500946 " stroke="#ffffff" stroke-width="1" stroke-opacity="1" stroke-miterlimit="4"/><path stroke-linecap="round" transform="matrix(0.0000000013083, -0.7496, 0.7496, 0.0000000013083, 120.925272, 109.721277)" fill-opacity="1" fill="#ffffff" fill-rule="nonzero" stroke-linejoin="round" d="M 2.499494 -0.999854 L 0.498427 0.500946 L 2.499494 2.001747 Z M 2.499494 -0.999854 " stroke="#ffffff" stroke-width="1" stroke-opacity="1" stroke-miterlimit="4"/><path stroke-linecap="butt" transform="matrix(-0.7496, -0.0000000013083, 0.0000000013083, -0.7496, 149.473566, 105.903199)" fill="none" stroke-linejoin="miter" d="M 2.74747 0.501408 L 11.663685 0.501408 " stroke="#ffffff" stroke-width="1" stroke-opacity="1" stroke-miterlimit="4"/><path stroke-linecap="round" transform="matrix(-0.7496, -0.0000000013083, 0.0000000013083, -0.7496, 149.473566, 105.903199)" fill-opacity="1" fill="#ffffff" fill-rule="nonzero" stroke-linejoin="round" d="M 2.502548 -0.999393 L 0.501481 0.501408 L 2.502548 2.002208 Z M 2.502548 -0.999393 " stroke="#ffffff" stroke-width="1" stroke-opacity="1" stroke-miterlimit="4"/><path stroke-linecap="butt" transform="matrix(0.7496, 0.000000000000001826, -0.000000000000001826, 0.7496, 95.154127, 104.778799)" fill="none" stroke-linejoin="miter" d="M 2.749089 0.498326 L 11.665303 0.498326 " stroke="#ffffff" stroke-width="1" stroke-opacity="1" stroke-miterlimit="4"/><path stroke-linecap="round" transform="matrix(0.7496, 0.000000000000001826, -0.000000000000001826, 0.7496, 95.154127, 104.778799)" fill-opacity="1" fill="#ffffff" fill-rule="nonzero" stroke-linejoin="round" d="M 2.498955 -1.002475 L 0.497888 0.498326 L 2.498955 1.999126 Z M 2.498955 -1.002475 " stroke="#ffffff" stroke-width="1" stroke-opacity="1" stroke-miterlimit="4"/><g transform="matrix(1, 0, 0, 1, 35, 79)"><g clip-path="url(#6570d48173)"><g clip-path="url(#bf0348e4f4)"><g fill="#ffffff" fill-opacity="1"><g transform="translate(0.159601, 8.108218)"><g><path d="M 1.953125 -6.859375 L 5.875 -6.859375 L 5.875 -5.875 L 6.859375 -5.875 L 6.859375 -4.890625 L 4.890625 -4.890625 L 4.890625 -5.875 L 2.9375 -5.875 L 2.9375 -4.890625 L 1.953125 -4.890625 L 1.953125 -1.953125 L 2.9375 -1.953125 L 2.9375 -0.984375 L 4.890625 -0.984375 L 4.890625 -1.953125 L 6.859375 -1.953125 L 6.859375 -0.984375 L 5.875 -0.984375 L 5.875 0 L 1.953125 0 L 1.953125 -0.984375 L 0.984375 -0.984375 L 0.984375 -1.953125 L 0 -1.953125 L 0 -4.890625 L 0.984375 -4.890625 L 0.984375 -5.875 L 1.953125 -5.875 Z M 1.953125 -6.859375 "/></g></g></g></g></g></g><path stroke-linecap="butt" transform="matrix(0, -0.7496, 0.7496, 0, 33.082697, 113.625498)" fill="none" stroke-linejoin="miter" d="M 0.000664671 0.499379 L 27.624775 0.499379 " stroke="#ffffff" stroke-width="1" stroke-opacity="1" stroke-miterlimit="4"/><path stroke-linecap="round" transform="matrix(0, -0.7496, 0.7496, 0, 33.082697, 113.625498)" fill-opacity="1" fill="#ffffff" fill-rule="nonzero" stroke-linejoin="round" d="M 30.876509 0.499379 C 30.876509 1.327946 30.204276 2.00018 29.375709 2.00018 C 28.547142 2.00018 27.874908 1.327946 27.874908 0.499379 C 27.874908 -0.329188 28.547142 -1.001421 29.375709 -1.001421 C 30.204276 -1.001421 30.876509 -0.329188 30.876509 0.499379 " stroke="#ffffff" stroke-width="1" stroke-opacity="1" stroke-miterlimit="4"/><path stroke-linecap="butt" transform="matrix(0, 0.7496, -0.7496, 0, 115.805505, 56.815032)" fill="none" stroke-linejoin="miter" d="M 0.00183356 0.501357 L 27.625944 0.501357 " stroke="#ffffff" stroke-width="1" stroke-opacity="1" stroke-miterlimit="4"/><path stroke-linecap="round" transform="matrix(0, 0.7496, -0.7496, 0, 115.805505, 56.815032)" fill-opacity="1" fill="#ffffff" fill-rule="nonzero" stroke-linejoin="round" d="M 30.877678 0.501357 C 30.877678 1.329924 30.205445 2.002157 29.376878 2.002157 C 28.548311 2.002157 27.876077 1.329924 27.876077 0.501357 C 27.876077 -0.32721 28.548311 -0.999444 29.376878 -0.999444 C 30.205445 -0.999444 30.877678 -0.32721 30.877678 0.501357 " stroke="#ffffff" stroke-width="1" stroke-opacity="1" stroke-miterlimit="4"/><path stroke-linecap="butt" transform="matrix(0, 0.7496, -0.7496, 0, 95.903523, 77.378798)" fill="none" stroke-linejoin="miter" d="M 0.00014381 0.50184 L 27.624254 0.50184 " stroke="#ffffff" stroke-width="1" stroke-opacity="1" stroke-miterlimit="4"/><path stroke-linecap="round" transform="matrix(0, 0.7496, -0.7496, 0, 95.903523, 77.378798)" fill-opacity="1" fill="#ffffff" fill-rule="nonzero" stroke-linejoin="round" d="M 30.875989 0.50184 C 30.875989 1.330407 30.203755 1.99743 29.375188 1.99743 C 28.546621 1.99743 27.874387 1.330407 27.874387 0.50184 C 27.874387 -0.326727 28.546621 -0.99896 29.375188 -0.99896 C 30.203755 -0.99896 30.875989 -0.326727 30.875989 0.50184 " stroke="#ffffff" stroke-width="1" stroke-opacity="1" stroke-miterlimit="4"/><path stroke-linecap="butt" transform="matrix(0, 0.7496, -0.7496, 0, 141.485436, 77.621935)" fill="none" stroke-linejoin="miter" d="M -0.00112238 0.501682 L 27.622988 0.501682 " stroke="#ffffff" stroke-width="1" stroke-opacity="1" stroke-miterlimit="4"/><path stroke-linecap="round" transform="matrix(0, 0.7496, -0.7496, 0, 141.485436, 77.621935)" fill-opacity="1" fill="#ffffff" fill-rule="nonzero" stroke-linejoin="round" d="M 30.874722 0.501682 C 30.874722 1.330249 30.202489 2.002483 29.373922 2.002483 C 28.545355 2.002483 27.873121 1.330249 27.873121 0.501682 C 27.873121 -0.326885 28.545355 -0.999118 29.373922 -0.999118 C 30.202489 -0.999118 30.874722 -0.326885 30.874722 0.501682 " stroke="#ffffff" stroke-width="1" stroke-opacity="1" stroke-miterlimit="4"/><path stroke-linecap="butt" transform="matrix(0, -0.7496, 0.7496, 0, 116.723792, 126.408909)" fill="none" stroke-linejoin="miter" d="M -0.00166352 0.498752 L 18.513421 0.498752 " stroke="#ffffff" stroke-width="1" stroke-opacity="1" stroke-miterlimit="4"/><path stroke-linecap="round" transform="matrix(0, -0.7496, 0.7496, 0, 116.723792, 126.408909)" fill-opacity="1" fill="#ffffff" fill-rule="nonzero" stroke-linejoin="round" d="M 21.765156 0.498752 C 21.765156 1.327319 21.092922 1.999552 20.264355 1.999552 C 19.435788 1.999552 18.763555 1.327319 18.763555 0.498752 C 18.763555 -0.329815 19.435788 -1.002049 20.264355 -1.002049 C 21.092922 -1.002049 21.765156 -0.329815 21.765156 0.498752 " stroke="#ffffff" stroke-width="1" stroke-opacity="1" stroke-miterlimit="4"/><g clip-path="url(#4c5612acf1)"><g clip-path="url(#6c44a3f2fe)"><path stroke-linecap="butt" transform="matrix(0.7496, 0, 0, 0.7496, 14.489474, 20.568025)" fill="none" stroke-linejoin="miter" d="M 4.995866 -0.0021598 L 19.800639 -0.0021598 C 21.124261 -0.0021598 22.395773 0.524163 23.333773 1.462163 C 24.271774 2.400163 24.798096 3.671675 24.798096 5.000509 L 24.798096 19.80007 C 24.798096 21.123692 24.271774 22.395204 23.333773 23.333204 C 22.395773 24.271205 21.124261 24.797527 19.800639 24.797527 L 4.995866 24.797527 C 3.672244 24.797527 2.400732 24.271205 1.462732 23.333204 C 0.524731 22.395204 -0.00159101 21.123692 -0.00159101 19.80007 L -0.00159101 5.000509 C -0.00159101 3.671675 0.524731 2.400163 1.462732 1.462163 C 2.400732 0.524163 3.672244 -0.0021598 4.995866 -0.0021598 Z M 4.995866 -0.0021598 " stroke="#ffffff" stroke-width="1" stroke-opacity="1" stroke-miterlimit="4"/></g></g><g transform="matrix(1, 0, 0, 1, 16, 25)"><g clip-path="url(#4e0758236c)"><g clip-path="url(#63cde0f043)"><g fill="#ffffff" fill-opacity="1"><g transform="translate(0.861723, 5.303365)"><g><path d="M 0 -4.046875 L 4.046875 -4.046875 L 4.046875 -3.46875 L 1.15625 -3.46875 L 1.15625 -2.3125 L 3.46875 -2.3125 L 3.46875 -1.734375 L 1.15625 -1.734375 L 1.15625 -0.578125 L 4.046875 -0.578125 L 4.046875 0 L 0 0 Z M 0 -4.046875 "/></g></g></g></g><g fill="#ffffff" fill-opacity="1"><g transform="translate(5.475983, 5.303365)"><g><path d="M 0.578125 -4.046875 L 2.890625 -4.046875 L 2.890625 -3.46875 L 3.46875 -3.46875 L 3.46875 -2.890625 L 2.3125 -2.890625 L 2.3125 -3.46875 L 1.15625 -3.46875 L 1.15625 -2.3125 L 3.46875 -2.3125 L 3.46875 -1.734375 L 4.046875 -1.734375 L 4.046875 -0.578125 L 3.46875 -0.578125 L 3.46875 0 L 0.578125 0 L 0.578125 -0.578125 L 0 -0.578125 L 0 -1.15625 L 1.15625 -1.15625 L 1.15625 -0.578125 L 2.890625 -0.578125 L 2.890625 -1.734375 L 0.578125 -1.734375 L 0.578125 -2.3125 L 0 -2.3125 L 0 -3.46875 L 0.578125 -3.46875 Z M 0.578125 -4.046875 "/></g></g></g><g fill="#ffffff" fill-opacity="1"><g transform="translate(10.090244, 5.303365)"><g><path d="M 1.15625 -4.046875 L 3.46875 -4.046875 L 3.46875 -3.46875 L 4.046875 -3.46875 L 4.046875 -2.890625 L 2.890625 -2.890625 L 2.890625 -3.46875 L 1.734375 -3.46875 L 1.734375 -2.890625 L 1.15625 -2.890625 L 1.15625 -1.15625 L 1.734375 -1.15625 L 1.734375 -0.578125 L 2.890625 -0.578125 L 2.890625 -1.15625 L 4.046875 -1.15625 L 4.046875 -0.578125 L 3.46875 -0.578125 L 3.46875 0 L 1.15625 0 L 1.15625 -0.578125 L 0.578125 -0.578125 L 0.578125 -1.15625 L 0 -1.15625 L 0 -2.890625 L 0.578125 -2.890625 L 0.578125 -3.46875 L 1.15625 -3.46875 Z M 1.15625 -4.046875 "/></g></g></g></g></g><path stroke-linecap="butt" transform="matrix(0, -0.7496, 0.7496, 0, 17.328496, 57.683697)" fill="none" stroke-linejoin="miter" d="M 0.000137749 0.499772 L 27.624248 0.499772 " stroke="#ffffff" stroke-width="1" stroke-opacity="1" stroke-miterlimit="4"/><path stroke-linecap="round" transform="matrix(0, -0.7496, 0.7496, 0, 17.328496, 57.683697)" fill-opacity="1" fill="#ffffff" fill-rule="nonzero" stroke-linejoin="round" d="M 30.875983 0.499772 C 30.875983 1.328339 30.203749 2.000573 29.375182 2.000573 C 28.546615 2.000573 27.874381 1.328339 27.874381 0.499772 C 27.874381 -0.328795 28.546615 -1.001029 29.375182 -1.001029 C 30.203749 -1.001029 30.875983 -0.328795 30.875983 0.499772 " stroke="#ffffff" stroke-width="1" stroke-opacity="1" stroke-miterlimit="4"/><g transform="matrix(1, 0, 0, 1, 11, 58)"><g clip-path="url(#d29516f990)"><g clip-path="url(#eea66cedaa)"><g fill="#ffffff" fill-opacity="1"><g transform="translate(1.394703, 4.202325)"><g><path d="M 0 -3.0625 L 2.625 -3.0625 L 2.625 -2.625 L 3.0625 -2.625 L 3.0625 -1.3125 L 2.625 -1.3125 L 2.625 -0.875 L 0.875 -0.875 L 0.875 0 L 0 0 Z M 2.1875 -2.625 L 0.875 -2.625 L 0.875 -1.3125 L 2.1875 -1.3125 Z M 2.1875 -2.625 "/></g></g></g></g><g clip-path="url(#4c54557cb2)"><g fill="#ffffff" fill-opacity="1"><g transform="translate(4.901238, 4.202325)"><g><path d="M 0.875 -3.0625 L 2.1875 -3.0625 L 2.1875 -2.625 L 2.625 -2.625 L 2.625 -2.1875 L 3.0625 -2.1875 L 3.0625 0 L 2.1875 0 L 2.1875 -0.875 L 0.875 -0.875 L 0.875 0 L 0 0 L 0 -2.1875 L 0.4375 -2.1875 L 0.4375 -2.625 L 0.875 -2.625 Z M 1.3125 -2.625 L 1.3125 -2.1875 L 0.875 -2.1875 L 0.875 -1.3125 L 2.1875 -1.3125 L 2.1875 -2.1875 L 1.75 -2.1875 L 1.75 -2.625 Z M 1.3125 -2.625 "/></g></g></g></g><g clip-path="url(#871476e161)"><g fill="#ffffff" fill-opacity="1"><g transform="translate(8.407772, 4.202325)"><g><path d="M 0 -3.0625 L 0.875 -3.0625 L 0.875 -0.4375 L 2.1875 -0.4375 L 2.1875 -3.0625 L 3.0625 -3.0625 L 3.0625 -0.4375 L 2.625 -0.4375 L 2.625 0 L 0.4375 0 L 0.4375 -0.4375 L 0 -0.4375 Z M 0 -3.0625 "/></g></g></g></g><g clip-path="url(#a9b5edae9d)"><g fill="#ffffff" fill-opacity="1"><g transform="translate(11.914307, 4.202325)"><g><path d="M 0.4375 -3.0625 L 2.1875 -3.0625 L 2.1875 -2.625 L 2.625 -2.625 L 2.625 -2.1875 L 1.75 -2.1875 L 1.75 -2.625 L 0.875 -2.625 L 0.875 -1.75 L 2.625 -1.75 L 2.625 -1.3125 L 3.0625 -1.3125 L 3.0625 -0.4375 L 2.625 -0.4375 L 2.625 0 L 0.4375 0 L 0.4375 -0.4375 L 0 -0.4375 L 0 -0.875 L 0.875 -0.875 L 0.875 -0.4375 L 2.1875 -0.4375 L 2.1875 -1.3125 L 0.4375 -1.3125 L 0.4375 -1.75 L 0 -1.75 L 0 -2.625 L 0.4375 -2.625 Z M 0.4375 -3.0625 "/></g></g></g></g><g clip-path="url(#6048a7c9d7)"><g fill="#ffffff" fill-opacity="1"><g transform="translate(15.420842, 4.202325)"><g><path d="M 0 -3.0625 L 3.0625 -3.0625 L 3.0625 -2.625 L 0.875 -2.625 L 0.875 -1.75 L 2.625 -1.75 L 2.625 -1.3125 L 0.875 -1.3125 L 0.875 -0.4375 L 3.0625 -0.4375 L 3.0625 0 L 0 0 Z M 0 -3.0625 "/></g></g></g></g></g></g><g transform="matrix(1, 0, 0, 1, 27, 115)"><g clip-path="url(#946fbd5db7)"><g clip-path="url(#8723a20c68)"><g fill="#ffffff" fill-opacity="1"><g transform="translate(0.304589, 4.734182)"><g><path d="M 0 -3.421875 L 0.984375 -3.421875 L 0.984375 -1.953125 L 2.453125 -1.953125 L 2.453125 -3.421875 L 3.421875 -3.421875 L 3.421875 0 L 2.453125 0 L 2.453125 -1.46875 L 0.984375 -1.46875 L 0.984375 0 L 0 0 Z M 0 -3.421875 "/></g></g></g></g><g fill="#ffffff" fill-opacity="1"><g transform="translate(4.217838, 4.734182)"><g><path d="M 0.484375 -3.421875 L 2.9375 -3.421875 L 2.9375 -2.9375 L 3.421875 -2.9375 L 3.421875 -0.484375 L 2.9375 -0.484375 L 2.9375 0 L 0.484375 0 L 0.484375 -0.484375 L 0 -0.484375 L 0 -2.9375 L 0.484375 -2.9375 Z M 0.984375 -2.9375 L 0.984375 -0.484375 L 2.453125 -0.484375 L 2.453125 -2.9375 Z M 0.984375 -2.9375 "/></g></g></g><g fill="#ffffff" fill-opacity="1"><g transform="translate(8.131086, 4.734182)"><g><path d="M 0 -3.421875 L 0.984375 -3.421875 L 0.984375 -0.484375 L 3.421875 -0.484375 L 3.421875 0 L 0 0 Z M 0 -3.421875 "/></g></g></g><g fill="#ffffff" fill-opacity="1"><g transform="translate(12.044335, 4.734182)"><g><path d="M 0 -3.421875 L 2.453125 -3.421875 L 2.453125 -2.9375 L 2.9375 -2.9375 L 2.9375 -2.453125 L 3.421875 -2.453125 L 3.421875 -0.984375 L 2.9375 -0.984375 L 2.9375 -0.484375 L 2.453125 -0.484375 L 2.453125 0 L 0 0 Z M 0.984375 -2.9375 L 0.984375 -0.484375 L 1.953125 -0.484375 L 1.953125 -0.984375 L 2.453125 -0.984375 L 2.453125 -2.453125 L 1.953125 -2.453125 L 1.953125 -2.9375 Z M 0.984375 -2.9375 "/></g></g></g></g></g><g clip-path="url(#3484c55083)"><g clip-path="url(#bc70f33afa)"><path stroke-linecap="butt" transform="matrix(0.7496, 0, 0, 0.7496, 58.622997, 34.164794)" fill="none" stroke-linejoin="miter" d="M 5.00013 -0.000976416 L 19.799691 -0.000976416 C 21.123314 -0.000976416 22.394825 0.525346 23.332826 1.463346 C 24.270826 2.401347 24.797148 3.672858 24.797148 4.996481 L 24.797148 19.796042 C 24.797148 21.124876 24.270826 22.396387 23.332826 23.334388 C 22.394825 24.272388 21.123314 24.798711 19.799691 24.798711 L 5.00013 24.798711 C 3.671296 24.798711 2.399785 24.272388 1.461784 23.334388 C 0.528995 22.396387 -0.00253858 21.124876 -0.00253858 19.796042 L -0.00253858 4.996481 C -0.00253858 3.672858 0.528995 2.401347 1.461784 1.463346 C 2.399785 0.525346 3.671296 -0.000976416 5.00013 -0.000976416 Z M 5.00013 -0.000976416 " stroke="#ffffff" stroke-width="1" stroke-opacity="1" stroke-miterlimit="4"/></g></g><g transform="matrix(1, 0, 0, 1, 63, 38)"><g clip-path="url(#63fde32b85)"><g clip-path="url(#58ff71aa14)"><g fill="#ffffff" fill-opacity="1"><g transform="translate(0.999685, 7.570854)"><g><path d="M 0 -6.859375 L 5.875 -6.859375 L 5.875 -5.875 L 6.859375 -5.875 L 6.859375 -2.9375 L 4.890625 -2.9375 L 4.890625 -1.953125 L 5.875 -1.953125 L 5.875 -0.984375 L 6.859375 -0.984375 L 6.859375 0 L 3.921875 0 L 3.921875 -0.984375 L 2.9375 -0.984375 L 2.9375 -1.953125 L 1.953125 -1.953125 L 1.953125 0 L 0 0 Z M 1.953125 -5.875 L 1.953125 -2.9375 L 3.921875 -2.9375 L 3.921875 -3.921875 L 4.890625 -3.921875 L 4.890625 -5.875 Z M 1.953125 -5.875 "/></g></g></g></g></g></g><path stroke-linecap="butt" transform="matrix(0, -0.7496, 0.7496, 0, 62.686128, 72.088132)" fill="none" stroke-linejoin="miter" d="M -0.00228395 0.502097 L 27.627037 0.502097 " stroke="#ffffff" stroke-width="1" stroke-opacity="1" stroke-miterlimit="4"/><path stroke-linecap="round" transform="matrix(0, -0.7496, 0.7496, 0, 62.686128, 72.088132)" fill-opacity="1" fill="#ffffff" fill-rule="nonzero" stroke-linejoin="round" d="M 30.873561 0.502097 C 30.873561 1.330664 30.206538 1.997686 29.377971 1.997686 C 28.549404 1.997686 27.877171 1.330664 27.877171 0.502097 C 27.877171 -0.32647 28.549404 -0.998704 29.377971 -0.998704 C 30.206538 -0.998704 30.873561 -0.32647 30.873561 0.502097 " stroke="#ffffff" stroke-width="1" stroke-opacity="1" stroke-miterlimit="4"/><g transform="matrix(1, 0, 0, 1, 55, 73)"><g clip-path="url(#8a00ba9527)"><g clip-path="url(#57c566f44f)"><g fill="#ffffff" fill-opacity="1"><g transform="translate(0.458945, 4.045227)"><g><path d="M 0 -3.421875 L 2.9375 -3.421875 L 2.9375 -2.9375 L 3.421875 -2.9375 L 3.421875 -1.46875 L 2.453125 -1.46875 L 2.453125 -0.984375 L 2.9375 -0.984375 L 2.9375 -0.484375 L 3.421875 -0.484375 L 3.421875 0 L 1.953125 0 L 1.953125 -0.484375 L 1.46875 -0.484375 L 1.46875 -0.984375 L 0.984375 -0.984375 L 0.984375 0 L 0 0 Z M 0.984375 -2.9375 L 0.984375 -1.46875 L 1.953125 -1.46875 L 1.953125 -1.953125 L 2.453125 -1.953125 L 2.453125 -2.9375 Z M 0.984375 -2.9375 "/></g></g></g></g><g clip-path="url(#6102cf8de0)"><g fill="#ffffff" fill-opacity="1"><g transform="translate(4.372193, 4.045227)"><g><path d="M 0 -3.421875 L 3.421875 -3.421875 L 3.421875 -2.9375 L 0.984375 -2.9375 L 0.984375 -1.953125 L 2.9375 -1.953125 L 2.9375 -1.46875 L 0.984375 -1.46875 L 0.984375 -0.484375 L 3.421875 -0.484375 L 3.421875 0 L 0 0 Z M 0 -3.421875 "/></g></g></g></g><g clip-path="url(#7d9523e999)"><g fill="#ffffff" fill-opacity="1"><g transform="translate(8.285441, 4.045227)"><g><path d="M 0.484375 -3.421875 L 3.421875 -3.421875 L 3.421875 -2.9375 L 2.453125 -2.9375 L 2.453125 0 L 1.46875 0 L 1.46875 -2.9375 L 0.484375 -2.9375 Z M 0.484375 -3.421875 "/></g></g></g></g><g clip-path="url(#ee7e1fe001)"><g fill="#ffffff" fill-opacity="1"><g transform="translate(12.19869, 4.045227)"><g><path d="M 0 -3.421875 L 2.9375 -3.421875 L 2.9375 -2.9375 L 3.421875 -2.9375 L 3.421875 -1.46875 L 2.453125 -1.46875 L 2.453125 -0.984375 L 2.9375 -0.984375 L 2.9375 -0.484375 L 3.421875 -0.484375 L 3.421875 0 L 1.953125 0 L 1.953125 -0.484375 L 1.46875 -0.484375 L 1.46875 -0.984375 L 0.984375 -0.984375 L 0.984375 0 L 0 0 Z M 0.984375 -2.9375 L 0.984375 -1.46875 L 1.953125 -1.46875 L 1.953125 -1.953125 L 2.453125 -1.953125 L 2.453125 -2.9375 Z M 0.984375 -2.9375 "/></g></g></g></g><g clip-path="url(#b671539f76)"><g fill="#ffffff" fill-opacity="1"><g transform="translate(16.111938, 4.045227)"><g><path d="M 0.484375 -3.421875 L 1.46875 -3.421875 L 1.46875 -1.953125 L 2.453125 -1.953125 L 2.453125 -3.421875 L 3.421875 -3.421875 L 3.421875 -1.953125 L 2.9375 -1.953125 L 2.9375 -1.46875 L 2.453125 -1.46875 L 2.453125 0 L 1.46875 0 L 1.46875 -1.46875 L 0.984375 -1.46875 L 0.984375 -1.953125 L 0.484375 -1.953125 Z M 0.484375 -3.421875 "/></g></g></g></g></g></g><g transform="matrix(1, 0, 0, 1, 85, 65)"><g clip-path="url(#b8566ae014)"><g clip-path="url(#47c03d1e11)"><g fill="#ffffff" fill-opacity="1"><g transform="translate(0.74509, 4.449284)"><g><path d="M 0 -3.421875 L 0.984375 -3.421875 L 0.984375 -2.9375 L 1.46875 -2.9375 L 1.46875 -2.453125 L 1.953125 -2.453125 L 1.953125 -2.9375 L 2.453125 -2.9375 L 2.453125 -3.421875 L 3.421875 -3.421875 L 3.421875 0 L 2.453125 0 L 2.453125 -1.46875 L 1.953125 -1.46875 L 1.953125 -0.984375 L 1.46875 -0.984375 L 1.46875 -1.46875 L 0.984375 -1.46875 L 0.984375 0 L 0 0 Z M 0 -3.421875 "/></g></g></g></g><g fill="#ffffff" fill-opacity="1"><g transform="translate(4.658338, 4.449284)"><g><path d="M 0.484375 -3.421875 L 2.9375 -3.421875 L 2.9375 -2.9375 L 3.421875 -2.9375 L 3.421875 -0.484375 L 2.9375 -0.484375 L 2.9375 0 L 0.484375 0 L 0.484375 -0.484375 L 0 -0.484375 L 0 -2.9375 L 0.484375 -2.9375 Z M 0.984375 -2.9375 L 0.984375 -0.484375 L 2.453125 -0.484375 L 2.453125 -2.9375 Z M 0.984375 -2.9375 "/></g></g></g><g fill="#ffffff" fill-opacity="1"><g transform="translate(8.571587, 4.449284)"><g><path d="M 0 -3.421875 L 0.984375 -3.421875 L 0.984375 -1.953125 L 1.46875 -1.953125 L 1.46875 -1.46875 L 1.953125 -1.46875 L 1.953125 -1.953125 L 2.453125 -1.953125 L 2.453125 -3.421875 L 3.421875 -3.421875 L 3.421875 -1.46875 L 2.9375 -1.46875 L 2.9375 -0.984375 L 2.453125 -0.984375 L 2.453125 -0.484375 L 1.953125 -0.484375 L 1.953125 0 L 1.46875 0 L 1.46875 -0.484375 L 0.984375 -0.484375 L 0.984375 -0.984375 L 0.484375 -0.984375 L 0.484375 -1.46875 L 0 -1.46875 Z M 0 -3.421875 "/></g></g></g><g fill="#ffffff" fill-opacity="1"><g transform="translate(12.484835, 4.449284)"><g><path d="M 0 -3.421875 L 3.421875 -3.421875 L 3.421875 -2.9375 L 0.984375 -2.9375 L 0.984375 -1.953125 L 2.9375 -1.953125 L 2.9375 -1.46875 L 0.984375 -1.46875 L 0.984375 -0.484375 L 3.421875 -0.484375 L 3.421875 0 L 0 0 Z M 0 -3.421875 "/></g></g></g><g fill="#ed4141" fill-opacity="1"><g transform="translate(16.398185, 4.449284)"><g/></g></g><g fill="#ffffff" fill-opacity="1"><g transform="translate(2.702377, 9.779769)"><g><path d="M 0 -3.421875 L 0.984375 -3.421875 L 0.984375 -0.484375 L 3.421875 -0.484375 L 3.421875 0 L 0 0 Z M 0 -3.421875 "/></g></g></g><g fill="#ffffff" fill-opacity="1"><g transform="translate(6.615626, 9.779769)"><g><path d="M 0 -3.421875 L 3.421875 -3.421875 L 3.421875 -2.9375 L 0.984375 -2.9375 L 0.984375 -1.953125 L 2.9375 -1.953125 L 2.9375 -1.46875 L 0.984375 -1.46875 L 0.984375 -0.484375 L 3.421875 -0.484375 L 3.421875 0 L 0 0 Z M 0 -3.421875 "/></g></g></g><g fill="#ffffff" fill-opacity="1"><g transform="translate(10.528874, 9.779769)"><g><path d="M 0 -3.421875 L 3.421875 -3.421875 L 3.421875 -2.9375 L 0.984375 -2.9375 L 0.984375 -1.953125 L 2.9375 -1.953125 L 2.9375 -1.46875 L 0.984375 -1.46875 L 0.984375 0 L 0 0 Z M 0 -3.421875 "/></g></g></g><g fill="#ffffff" fill-opacity="1"><g transform="translate(14.442123, 9.779769)"><g><path d="M 0.484375 -3.421875 L 3.421875 -3.421875 L 3.421875 -2.9375 L 2.453125 -2.9375 L 2.453125 0 L 1.46875 0 L 1.46875 -2.9375 L 0.484375 -2.9375 Z M 0.484375 -3.421875 "/></g></g></g></g></g><g transform="matrix(1, 0, 0, 1, 132, 65)"><g clip-path="url(#95ebc5b18e)"><g fill="#ffffff" fill-opacity="1"><g transform="translate(1.002088, 4.449284)"><g><path d="M 0 -3.421875 L 0.984375 -3.421875 L 0.984375 -2.9375 L 1.46875 -2.9375 L 1.46875 -2.453125 L 1.953125 -2.453125 L 1.953125 -2.9375 L 2.453125 -2.9375 L 2.453125 -3.421875 L 3.421875 -3.421875 L 3.421875 0 L 2.453125 0 L 2.453125 -1.46875 L 1.953125 -1.46875 L 1.953125 -0.984375 L 1.46875 -0.984375 L 1.46875 -1.46875 L 0.984375 -1.46875 L 0.984375 0 L 0 0 Z M 0 -3.421875 "/></g></g></g><g fill="#ffffff" fill-opacity="1"><g transform="translate(4.915336, 4.449284)"><g><path d="M 0.484375 -3.421875 L 2.9375 -3.421875 L 2.9375 -2.9375 L 3.421875 -2.9375 L 3.421875 -0.484375 L 2.9375 -0.484375 L 2.9375 0 L 0.484375 0 L 0.484375 -0.484375 L 0 -0.484375 L 0 -2.9375 L 0.484375 -2.9375 Z M 0.984375 -2.9375 L 0.984375 -0.484375 L 2.453125 -0.484375 L 2.453125 -2.9375 Z M 0.984375 -2.9375 "/></g></g></g><g fill="#ffffff" fill-opacity="1"><g transform="translate(8.828584, 4.449284)"><g><path d="M 0 -3.421875 L 0.984375 -3.421875 L 0.984375 -1.953125 L 1.46875 -1.953125 L 1.46875 -1.46875 L 1.953125 -1.46875 L 1.953125 -1.953125 L 2.453125 -1.953125 L 2.453125 -3.421875 L 3.421875 -3.421875 L 3.421875 -1.46875 L 2.9375 -1.46875 L 2.9375 -0.984375 L 2.453125 -0.984375 L 2.453125 -0.484375 L 1.953125 -0.484375 L 1.953125 0 L 1.46875 0 L 1.46875 -0.484375 L 0.984375 -0.484375 L 0.984375 -0.984375 L 0.484375 -0.984375 L 0.484375 -1.46875 L 0 -1.46875 Z M 0 -3.421875 "/></g></g></g><g fill="#ffffff" fill-opacity="1"><g transform="translate(12.741833, 4.449284)"><g><path d="M 0 -3.421875 L 3.421875 -3.421875 L 3.421875 -2.9375 L 0.984375 -2.9375 L 0.984375 -1.953125 L 2.9375 -1.953125 L 2.9375 -1.46875 L 0.984375 -1.46875 L 0.984375 -0.484375 L 3.421875 -0.484375 L 3.421875 0 L 0 0 Z M 0 -3.421875 "/></g></g></g><g fill="#ed4141" fill-opacity="1"><g transform="translate(16.655183, 4.449284)"><g/></g></g><g fill="#ffffff" fill-opacity="1"><g transform="translate(1.002088, 9.779769)"><g><path d="M 0 -3.421875 L 2.9375 -3.421875 L 2.9375 -2.9375 L 3.421875 -2.9375 L 3.421875 -1.46875 L 2.453125 -1.46875 L 2.453125 -0.984375 L 2.9375 -0.984375 L 2.9375 -0.484375 L 3.421875 -0.484375 L 3.421875 0 L 1.953125 0 L 1.953125 -0.484375 L 1.46875 -0.484375 L 1.46875 -0.984375 L 0.984375 -0.984375 L 0.984375 0 L 0 0 Z M 0.984375 -2.9375 L 0.984375 -1.46875 L 1.953125 -1.46875 L 1.953125 -1.953125 L 2.453125 -1.953125 L 2.453125 -2.9375 Z M 0.984375 -2.9375 "/></g></g></g><g fill="#ffffff" fill-opacity="1"><g transform="translate(4.915336, 9.779769)"><g><path d="M 0.484375 -3.421875 L 3.421875 -3.421875 L 3.421875 -2.9375 L 2.453125 -2.9375 L 2.453125 -0.484375 L 3.421875 -0.484375 L 3.421875 0 L 0.484375 0 L 0.484375 -0.484375 L 1.46875 -0.484375 L 1.46875 -2.9375 L 0.484375 -2.9375 Z M 0.484375 -3.421875 "/></g></g></g><g fill="#ffffff" fill-opacity="1"><g transform="translate(8.828584, 9.779769)"><g><path d="M 0.984375 -3.421875 L 3.421875 -3.421875 L 3.421875 -2.9375 L 1.46875 -2.9375 L 1.46875 -2.453125 L 0.984375 -2.453125 L 0.984375 -0.984375 L 1.46875 -0.984375 L 1.46875 -0.484375 L 2.453125 -0.484375 L 2.453125 -1.46875 L 1.953125 -1.46875 L 1.953125 -1.953125 L 3.421875 -1.953125 L 3.421875 0 L 0.984375 0 L 0.984375 -0.484375 L 0.484375 -0.484375 L 0.484375 -0.984375 L 0 -0.984375 L 0 -2.453125 L 0.484375 -2.453125 L 0.484375 -2.9375 L 0.984375 -2.9375 Z M 0.984375 -3.421875 "/></g></g></g><g fill="#ffffff" fill-opacity="1"><g transform="translate(12.741833, 9.779769)"><g><path d="M 0 -3.421875 L 0.984375 -3.421875 L 0.984375 -1.953125 L 2.453125 -1.953125 L 2.453125 -3.421875 L 3.421875 -3.421875 L 3.421875 0 L 2.453125 0 L 2.453125 -1.46875 L 0.984375 -1.46875 L 0.984375 0 L 0 0 Z M 0 -3.421875 "/></g></g></g><g clip-path="url(#f6d8d06065)"><g fill="#ffffff" fill-opacity="1"><g transform="translate(16.655081, 9.779769)"><g><path d="M 0.484375 -3.421875 L 3.421875 -3.421875 L 3.421875 -2.9375 L 2.453125 -2.9375 L 2.453125 0 L 1.46875 0 L 1.46875 -2.9375 L 0.484375 -2.9375 Z M 0.484375 -3.421875 "/></g></g></g></g></g></g><g transform="matrix(1, 0, 0, 1, 108, 129)"><g clip-path="url(#4dcf37741c)"><g clip-path="url(#9166e43c7b)"><g fill="#ffffff" fill-opacity="1"><g transform="translate(1.098026, 4.011207)"><g><path d="M 0 -3.421875 L 0.984375 -3.421875 L 0.984375 -2.9375 L 1.46875 -2.9375 L 1.46875 -2.453125 L 1.953125 -2.453125 L 1.953125 -2.9375 L 2.453125 -2.9375 L 2.453125 -3.421875 L 3.421875 -3.421875 L 3.421875 0 L 2.453125 0 L 2.453125 -1.46875 L 1.953125 -1.46875 L 1.953125 -0.984375 L 1.46875 -0.984375 L 1.46875 -1.46875 L 0.984375 -1.46875 L 0.984375 0 L 0 0 Z M 0 -3.421875 "/></g></g></g></g><g clip-path="url(#dacadf41b5)"><g fill="#ffffff" fill-opacity="1"><g transform="translate(5.011275, 4.011207)"><g><path d="M 0.484375 -3.421875 L 2.9375 -3.421875 L 2.9375 -2.9375 L 3.421875 -2.9375 L 3.421875 -0.484375 L 2.9375 -0.484375 L 2.9375 0 L 0.484375 0 L 0.484375 -0.484375 L 0 -0.484375 L 0 -2.9375 L 0.484375 -2.9375 Z M 0.984375 -2.9375 L 0.984375 -0.484375 L 2.453125 -0.484375 L 2.453125 -2.9375 Z M 0.984375 -2.9375 "/></g></g></g></g><g clip-path="url(#5cf0bb003c)"><g fill="#ffffff" fill-opacity="1"><g transform="translate(8.924523, 4.011207)"><g><path d="M 0 -3.421875 L 0.984375 -3.421875 L 0.984375 -1.953125 L 1.46875 -1.953125 L 1.46875 -1.46875 L 1.953125 -1.46875 L 1.953125 -1.953125 L 2.453125 -1.953125 L 2.453125 -3.421875 L 3.421875 -3.421875 L 3.421875 -1.46875 L 2.9375 -1.46875 L 2.9375 -0.984375 L 2.453125 -0.984375 L 2.453125 -0.484375 L 1.953125 -0.484375 L 1.953125 0 L 1.46875 0 L 1.46875 -0.484375 L 0.984375 -0.484375 L 0.984375 -0.984375 L 0.484375 -0.984375 L 0.484375 -1.46875 L 0 -1.46875 Z M 0 -3.421875 "/></g></g></g></g><g clip-path="url(#fc33f90c19)"><g fill="#ffffff" fill-opacity="1"><g transform="translate(12.837772, 4.011207)"><g><path d="M 0 -3.421875 L 3.421875 -3.421875 L 3.421875 -2.9375 L 0.984375 -2.9375 L 0.984375 -1.953125 L 2.9375 -1.953125 L 2.9375 -1.46875 L 0.984375 -1.46875 L 0.984375 -0.484375 L 3.421875 -0.484375 L 3.421875 0 L 0 0 Z M 0 -3.421875 "/></g></g></g></g><g fill="#ed4141" fill-opacity="1"><g transform="translate(16.751122, 4.011207)"><g/></g></g><g fill="#ffffff" fill-opacity="1"><g transform="translate(3.055314, 9.341693)"><g><path d="M 0 -3.421875 L 2.453125 -3.421875 L 2.453125 -2.9375 L 2.9375 -2.9375 L 2.9375 -2.453125 L 3.421875 -2.453125 L 3.421875 -0.984375 L 2.9375 -0.984375 L 2.9375 -0.484375 L 2.453125 -0.484375 L 2.453125 0 L 0 0 Z M 0.984375 -2.9375 L 0.984375 -0.484375 L 1.953125 -0.484375 L 1.953125 -0.984375 L 2.453125 -0.984375 L 2.453125 -2.453125 L 1.953125 -2.453125 L 1.953125 -2.9375 Z M 0.984375 -2.9375 "/></g></g></g><g fill="#ffffff" fill-opacity="1"><g transform="translate(6.968562, 9.341693)"><g><path d="M 0.484375 -3.421875 L 2.9375 -3.421875 L 2.9375 -2.9375 L 3.421875 -2.9375 L 3.421875 -0.484375 L 2.9375 -0.484375 L 2.9375 0 L 0.484375 0 L 0.484375 -0.484375 L 0 -0.484375 L 0 -2.9375 L 0.484375 -2.9375 Z M 0.984375 -2.9375 L 0.984375 -0.484375 L 2.453125 -0.484375 L 2.453125 -2.9375 Z M 0.984375 -2.9375 "/></g></g></g><g fill="#ffffff" fill-opacity="1"><g transform="translate(10.881811, 9.341693)"><g><path d="M 0 -3.421875 L 0.984375 -3.421875 L 0.984375 -1.46875 L 1.46875 -1.46875 L 1.46875 -1.953125 L 1.953125 -1.953125 L 1.953125 -1.46875 L 2.453125 -1.46875 L 2.453125 -3.421875 L 3.421875 -3.421875 L 3.421875 0 L 2.453125 0 L 2.453125 -0.484375 L 1.953125 -0.484375 L 1.953125 -0.984375 L 1.46875 -0.984375 L 1.46875 -0.484375 L 0.984375 -0.484375 L 0.984375 0 L 0 0 Z M 0 -3.421875 "/></g></g></g><g fill="#ffffff" fill-opacity="1"><g transform="translate(14.795059, 9.341693)"><g><path d="M 0 -3.421875 L 0.984375 -3.421875 L 0.984375 -2.9375 L 1.46875 -2.9375 L 1.46875 -2.453125 L 1.953125 -2.453125 L 1.953125 -1.953125 L 2.453125 -1.953125 L 2.453125 -3.421875 L 3.421875 -3.421875 L 3.421875 0 L 2.453125 0 L 2.453125 -0.484375 L 1.953125 -0.484375 L 1.953125 -0.984375 L 1.46875 -0.984375 L 1.46875 -1.46875 L 0.984375 -1.46875 L 0.984375 0 L 0 0 Z M 0 -3.421875 "/></g></g></g></g></g><g transform="matrix(1, 0, 0, 1, 106, 45)"><g clip-path="url(#1310cbdab8)"><g clip-path="url(#193ba5dfbb)"><g fill="#ffffff" fill-opacity="1"><g transform="translate(0.227264, 3.809423)"><g><path d="M 0 -3.421875 L 0.984375 -3.421875 L 0.984375 -2.9375 L 1.46875 -2.9375 L 1.46875 -2.453125 L 1.953125 -2.453125 L 1.953125 -2.9375 L 2.453125 -2.9375 L 2.453125 -3.421875 L 3.421875 -3.421875 L 3.421875 0 L 2.453125 0 L 2.453125 -1.46875 L 1.953125 -1.46875 L 1.953125 -0.984375 L 1.46875 -0.984375 L 1.46875 -1.46875 L 0.984375 -1.46875 L 0.984375 0 L 0 0 Z M 0 -3.421875 "/></g></g></g></g><g clip-path="url(#a5b54994f5)"><g fill="#ffffff" fill-opacity="1"><g transform="translate(4.140512, 3.809423)"><g><path d="M 0.484375 -3.421875 L 2.9375 -3.421875 L 2.9375 -2.9375 L 3.421875 -2.9375 L 3.421875 -0.484375 L 2.9375 -0.484375 L 2.9375 0 L 0.484375 0 L 0.484375 -0.484375 L 0 -0.484375 L 0 -2.9375 L 0.484375 -2.9375 Z M 0.984375 -2.9375 L 0.984375 -0.484375 L 2.453125 -0.484375 L 2.453125 -2.9375 Z M 0.984375 -2.9375 "/></g></g></g></g><g clip-path="url(#13f691065e)"><g fill="#ffffff" fill-opacity="1"><g transform="translate(8.053761, 3.809423)"><g><path d="M 0 -3.421875 L 0.984375 -3.421875 L 0.984375 -1.953125 L 1.46875 -1.953125 L 1.46875 -1.46875 L 1.953125 -1.46875 L 1.953125 -1.953125 L 2.453125 -1.953125 L 2.453125 -3.421875 L 3.421875 -3.421875 L 3.421875 -1.46875 L 2.9375 -1.46875 L 2.9375 -0.984375 L 2.453125 -0.984375 L 2.453125 -0.484375 L 1.953125 -0.484375 L 1.953125 0 L 1.46875 0 L 1.46875 -0.484375 L 0.984375 -0.484375 L 0.984375 -0.984375 L 0.484375 -0.984375 L 0.484375 -1.46875 L 0 -1.46875 Z M 0 -3.421875 "/></g></g></g></g><g clip-path="url(#fe040315f6)"><g fill="#ffffff" fill-opacity="1"><g transform="translate(11.967009, 3.809423)"><g><path d="M 0 -3.421875 L 3.421875 -3.421875 L 3.421875 -2.9375 L 0.984375 -2.9375 L 0.984375 -1.953125 L 2.9375 -1.953125 L 2.9375 -1.46875 L 0.984375 -1.46875 L 0.984375 -0.484375 L 3.421875 -0.484375 L 3.421875 0 L 0 0 Z M 0 -3.421875 "/></g></g></g></g><g fill="#ed4141" fill-opacity="1"><g transform="translate(15.880359, 3.809423)"><g/></g></g><g clip-path="url(#a9142c3b67)"><g fill="#ffffff" fill-opacity="1"><g transform="translate(6.093921, 9.139908)"><g><path d="M 0 -3.421875 L 0.984375 -3.421875 L 0.984375 -0.484375 L 2.453125 -0.484375 L 2.453125 -3.421875 L 3.421875 -3.421875 L 3.421875 -0.484375 L 2.9375 -0.484375 L 2.9375 0 L 0.484375 0 L 0.484375 -0.484375 L 0 -0.484375 Z M 0 -3.421875 "/></g></g></g></g><g clip-path="url(#c5edd025c7)"><g fill="#ffffff" fill-opacity="1"><g transform="translate(10.007169, 9.139908)"><g><path d="M 0 -3.421875 L 2.9375 -3.421875 L 2.9375 -2.9375 L 3.421875 -2.9375 L 3.421875 -1.46875 L 2.9375 -1.46875 L 2.9375 -0.984375 L 0.984375 -0.984375 L 0.984375 0 L 0 0 Z M 2.453125 -2.9375 L 0.984375 -2.9375 L 0.984375 -1.46875 L 2.453125 -1.46875 Z M 2.453125 -2.9375 "/></g></g></g></g></g></g><g transform="matrix(1, 0, 0, 1, 46, 5)"><g clip-path="url(#22e67c033e)"><g clip-path="url(#d2b203f1e4)"><g fill="#ffffff" fill-opacity="1"><g transform="translate(0.480854, 6.389116)"><g><path d="M 0 -5.140625 L 1.46875 -5.140625 L 1.46875 -2.9375 L 2.203125 -2.9375 L 2.203125 -3.671875 L 2.9375 -3.671875 L 2.9375 -4.40625 L 3.671875 -4.40625 L 3.671875 -5.140625 L 5.140625 -5.140625 L 5.140625 -4.40625 L 4.40625 -4.40625 L 4.40625 -3.671875 L 3.671875 -3.671875 L 3.671875 -2.9375 L 2.9375 -2.9375 L 2.9375 -2.203125 L 3.671875 -2.203125 L 3.671875 -1.46875 L 4.40625 -1.46875 L 4.40625 -0.734375 L 5.140625 -0.734375 L 5.140625 0 L 2.9375 0 L 2.9375 -0.734375 L 2.203125 -0.734375 L 2.203125 -1.46875 L 1.46875 -1.46875 L 1.46875 0 L 0 0 Z M 0 -5.140625 "/></g></g></g></g><g fill="#ffffff" fill-opacity="1"><g transform="translate(6.350719, 6.389116)"><g><path d="M 0 -5.140625 L 5.140625 -5.140625 L 5.140625 -4.40625 L 1.46875 -4.40625 L 1.46875 -2.9375 L 4.40625 -2.9375 L 4.40625 -2.203125 L 1.46875 -2.203125 L 1.46875 -0.734375 L 5.140625 -0.734375 L 5.140625 0 L 0 0 Z M 0 -5.140625 "/></g></g></g><g fill="#ffffff" fill-opacity="1"><g transform="translate(12.220583, 6.389116)"><g><path d="M 0.734375 -5.140625 L 2.203125 -5.140625 L 2.203125 -2.9375 L 3.671875 -2.9375 L 3.671875 -5.140625 L 5.140625 -5.140625 L 5.140625 -2.9375 L 4.40625 -2.9375 L 4.40625 -2.203125 L 3.671875 -2.203125 L 3.671875 0 L 2.203125 0 L 2.203125 -2.203125 L 1.46875 -2.203125 L 1.46875 -2.9375 L 0.734375 -2.9375 Z M 0.734375 -5.140625 "/></g></g></g><g fill="#ffffff" fill-opacity="1"><g transform="translate(18.090447, 6.389116)"><g><path d="M 0 -5.140625 L 4.40625 -5.140625 L 4.40625 -4.40625 L 5.140625 -4.40625 L 5.140625 -2.9375 L 4.40625 -2.9375 L 4.40625 -2.203125 L 5.140625 -2.203125 L 5.140625 -0.734375 L 4.40625 -0.734375 L 4.40625 0 L 0 0 Z M 1.46875 -4.40625 L 1.46875 -2.9375 L 3.671875 -2.9375 L 3.671875 -4.40625 Z M 1.46875 -2.203125 L 1.46875 -0.734375 L 3.671875 -0.734375 L 3.671875 -2.203125 Z M 1.46875 -2.203125 "/></g></g></g><g fill="#ffffff" fill-opacity="1"><g transform="translate(23.960312, 6.389116)"><g><path d="M 0.734375 -5.140625 L 4.40625 -5.140625 L 4.40625 -4.40625 L 5.140625 -4.40625 L 5.140625 -0.734375 L 4.40625 -0.734375 L 4.40625 0 L 0.734375 0 L 0.734375 -0.734375 L 0 -0.734375 L 0 -4.40625 L 0.734375 -4.40625 Z M 1.46875 -4.40625 L 1.46875 -0.734375 L 3.671875 -0.734375 L 3.671875 -4.40625 Z M 1.46875 -4.40625 "/></g></g></g><g fill="#ffffff" fill-opacity="1"><g transform="translate(29.830176, 6.389116)"><g><path d="M 1.46875 -5.140625 L 3.671875 -5.140625 L 3.671875 -4.40625 L 4.40625 -4.40625 L 4.40625 -3.671875 L 5.140625 -3.671875 L 5.140625 0 L 3.671875 0 L 3.671875 -1.46875 L 1.46875 -1.46875 L 1.46875 0 L 0 0 L 0 -3.671875 L 0.734375 -3.671875 L 0.734375 -4.40625 L 1.46875 -4.40625 Z M 2.203125 -4.40625 L 2.203125 -3.671875 L 1.46875 -3.671875 L 1.46875 -2.203125 L 3.671875 -2.203125 L 3.671875 -3.671875 L 2.9375 -3.671875 L 2.9375 -4.40625 Z M 2.203125 -4.40625 "/></g></g></g><g fill="#ffffff" fill-opacity="1"><g transform="translate(35.70004, 6.389116)"><g><path d="M 0 -5.140625 L 4.40625 -5.140625 L 4.40625 -4.40625 L 5.140625 -4.40625 L 5.140625 -2.203125 L 3.671875 -2.203125 L 3.671875 -1.46875 L 4.40625 -1.46875 L 4.40625 -0.734375 L 5.140625 -0.734375 L 5.140625 0 L 2.9375 0 L 2.9375 -0.734375 L 2.203125 -0.734375 L 2.203125 -1.46875 L 1.46875 -1.46875 L 1.46875 0 L 0 0 Z M 1.46875 -4.40625 L 1.46875 -2.203125 L 2.9375 -2.203125 L 2.9375 -2.9375 L 3.671875 -2.9375 L 3.671875 -4.40625 Z M 1.46875 -4.40625 "/></g></g></g><g fill="#ffffff" fill-opacity="1"><g transform="translate(41.569905, 6.389116)"><g><path d="M 0 -5.140625 L 3.671875 -5.140625 L 3.671875 -4.40625 L 4.40625 -4.40625 L 4.40625 -3.671875 L 5.140625 -3.671875 L 5.140625 -1.46875 L 4.40625 -1.46875 L 4.40625 -0.734375 L 3.671875 -0.734375 L 3.671875 0 L 0 0 Z M 1.46875 -4.40625 L 1.46875 -0.734375 L 2.9375 -0.734375 L 2.9375 -1.46875 L 3.671875 -1.46875 L 3.671875 -3.671875 L 2.9375 -3.671875 L 2.9375 -4.40625 Z M 1.46875 -4.40625 "/></g></g></g></g></g><g clip-path="url(#2d7c36c727)"><g clip-path="url(#9192896fd7)"><path stroke-linecap="butt" transform="matrix(0.7496, 0, 0, 0.7496, 8.575311, 17.285967)" fill="none" stroke-linejoin="miter" d="M 6.001745 -0.00108163 L 199.891628 -0.00108163 C 201.481018 -0.00108163 203.007874 0.634674 204.133474 1.755063 C 205.259075 2.880664 205.88962 4.40752 205.88962 5.996909 L 205.88962 136.71768 C 205.88962 138.312281 205.259075 139.833926 204.133474 140.959526 C 203.007874 142.085127 201.481018 142.720882 199.891628 142.720882 L 6.001745 142.720882 C 4.407145 142.720882 2.880289 142.085127 1.754688 140.959526 C 0.634299 139.833926 -0.00145679 138.312281 -0.00145679 136.71768 L -0.00145679 5.996909 C -0.00145679 4.40752 0.634299 2.880664 1.754688 1.755063 C 2.880289 0.634674 4.407145 -0.00108163 6.001745 -0.00108163 Z M 6.001745 -0.00108163 " stroke="#ffffff" stroke-width="2" stroke-opacity="1" stroke-miterlimit="4"/></g></g></svg>